<svg xmlns="http://www.w3.org/2000/svg" viewBox="0 0 613 613" width="613" height="613">
	<style>
		tspan { white-space:pre }
		.shp0 { fill: #ffffff } 
	</style>
	<g id="Layer">
		<g id="Layer">
			<path id="Layer" fill-rule="evenodd" class="shp0" d="M612 59.08L612 552.92C612 585.5 585.5 612 552.92 612L59.08 612C26.5 612 0 585.5 0 552.92L0 59.08C0 26.5 26.5 0 59.08 0L552.92 0C585.5 0 612 26.5 612 59.08ZM36.38 235.88L113.29 235.88L113.29 172.72L36.38 172.72L36.38 235.88ZM575.62 552.92L575.62 59.08C575.62 46.56 565.44 36.38 552.92 36.38L59.08 36.38C46.56 36.38 36.38 46.56 36.38 59.08L36.38 136.33L75.74 136.33L75.74 93.93C75.74 83.89 83.89 75.74 93.93 75.74L518.07 75.74C528.12 75.74 536.26 83.89 536.26 93.93L536.26 518.07C536.26 528.11 528.12 536.26 518.07 536.26L93.93 536.26C83.89 536.26 75.74 528.11 75.74 518.07L75.74 475.67L36.38 475.67L36.38 552.92C36.38 565.44 46.56 575.62 59.08 575.62L552.92 575.62C565.44 575.62 575.62 565.44 575.62 552.92L575.62 552.92ZM36.38 272.26L36.38 339.74L75.74 339.74L75.74 272.26L36.38 272.26ZM36.38 439.29L93.87 439.29C93.9 439.29 93.91 439.28 93.93 439.28C93.95 439.28 93.97 439.29 93.99 439.29L113.29 439.29L113.29 376.12L36.38 376.12L36.38 439.29ZM149.68 357.93L149.68 457.48C149.68 467.52 141.53 475.67 131.49 475.67L112.12 475.67L112.12 499.88L499.88 499.88L499.88 112.12L112.12 112.12L112.12 136.33L131.49 136.33C141.53 136.33 149.68 144.48 149.68 154.52L149.68 254.06C149.68 264.11 141.53 272.26 131.49 272.26L112.12 272.26L112.12 339.74L131.49 339.74C141.53 339.74 149.68 347.89 149.68 357.93Z" />
			<path id="Layer" fill-rule="evenodd" class="shp0" d="M170.43 430.58L220.99 380.03C205.65 359.4 196.55 333.86 196.55 306.23C196.55 278.48 205.72 252.84 221.18 232.16L170.43 181.41C163.33 174.31 163.33 162.79 170.43 155.69C177.54 148.58 189.05 148.58 196.16 155.69L246.98 206.51C267.57 191.29 293 182.27 320.51 182.27C348.14 182.27 373.68 191.36 394.31 206.7L445.33 155.69C452.43 148.58 463.95 148.58 471.05 155.69C478.16 162.79 478.16 174.31 471.05 181.41L420.04 232.43C435.38 253.06 444.47 278.6 444.47 306.23C444.47 333.74 435.45 359.17 420.23 379.76L471.05 430.58C478.16 437.69 478.16 449.21 471.05 456.31C467.5 459.86 462.84 461.64 458.19 461.64C453.53 461.64 448.88 459.86 445.33 456.31L394.58 405.56C373.9 421.02 348.26 430.19 320.51 430.19C292.88 430.19 267.34 421.1 246.71 405.76L196.16 456.31C192.61 459.86 187.95 461.64 183.3 461.64C178.64 461.64 173.99 459.86 170.43 456.31C163.33 449.21 163.33 437.69 170.43 430.58ZM232.94 306.23C232.94 354.52 272.22 393.81 320.51 393.81C368.8 393.81 408.09 354.52 408.09 306.23C408.09 257.94 368.8 218.66 320.51 218.66C272.22 218.66 232.94 257.94 232.94 306.23Z" />
		</g>
	</g>
</svg>